<svg width="34" height="32" viewBox="0 0 34 32" fill="none" xmlns="http://www.w3.org/2000/svg">
<path d="M17 8.22222C17 6.57199 16.3679 4.98934 15.2426 3.82245C14.1174 2.65555 12.5913 2 11 2H2V25.3333H12.5C13.6935 25.3333 14.8381 25.825 15.682 26.7002C16.5259 27.5753 17 28.7623 17 30M17 8.22222V30M17 8.22222C17 6.57199 17.6321 4.98934 18.7574 3.82245C19.8826 2.65555 21.4087 2 23 2H32V25.3333H21.5C20.3065 25.3333 19.1619 25.825 18.318 26.7002C17.4741 27.5753 17 28.7623 17 30" stroke="white" stroke-width="3" stroke-linecap="round" stroke-linejoin="round"/>
</svg>
